<svg xmlns="http://www.w3.org/2000/svg" xmlns:xlink="http://www.w3.org/1999/xlink" width="583.484" height="344.646" viewBox="0 0 583.484 344.646">
  <defs>
    <linearGradient id="linear-gradient" x1="-30.314" y1="-2.492" x2="-29.95" y2="-3.518" gradientUnits="objectBoundingBox">
      <stop offset="0" stop-color="#1b1b1c"/>
      <stop offset="1" stop-color="#575758"/>
    </linearGradient>
    <linearGradient id="linear-gradient-2" x1="49.047" y1="10.483" x2="48.682" y2="11.509" xlink:href="#linear-gradient"/>
    <linearGradient id="linear-gradient-3" x1="-11.944" y1="14.444" x2="-12.308" y2="15.47" xlink:href="#linear-gradient"/>
    <linearGradient id="linear-gradient-4" x1="-33.692" y1="14.444" x2="-34.056" y2="15.47" xlink:href="#linear-gradient"/>
    <linearGradient id="linear-gradient-5" x1="-17.757" y1="14.444" x2="-18.121" y2="15.47" xlink:href="#linear-gradient"/>
    <linearGradient id="linear-gradient-6" x1="-67.784" y1="41.337" x2="-68.148" y2="42.364" xlink:href="#linear-gradient"/>
    <linearGradient id="linear-gradient-7" x1="-144.897" y1="41.325" x2="-145.262" y2="42.351" xlink:href="#linear-gradient"/>
    <linearGradient id="linear-gradient-8" x1="3.338" y1="20.719" x2="2.973" y2="21.746" xlink:href="#linear-gradient"/>
    <linearGradient id="linear-gradient-9" x1="54.444" y1="10.483" x2="54.08" y2="11.509" xlink:href="#linear-gradient"/>
    <linearGradient id="linear-gradient-10" x1="73.2" y1="14.839" x2="72.836" y2="15.866" xlink:href="#linear-gradient"/>
    <linearGradient id="linear-gradient-11" x1="59.509" y1="14.84" x2="59.144" y2="15.866" xlink:href="#linear-gradient"/>
    <linearGradient id="linear-gradient-12" x1="47.509" y1="14.84" x2="47.145" y2="15.866" xlink:href="#linear-gradient"/>
    <linearGradient id="linear-gradient-13" x1="27.692" y1="14.84" x2="27.328" y2="15.866" xlink:href="#linear-gradient"/>
    <linearGradient id="linear-gradient-14" x1="-0.228" y1="14.84" x2="-0.592" y2="15.867" xlink:href="#linear-gradient"/>
    <linearGradient id="linear-gradient-15" x1="-10.53" y1="20.995" x2="-10.894" y2="22.021" xlink:href="#linear-gradient"/>
    <linearGradient id="linear-gradient-16" x1="72.114" y1="21.003" x2="71.75" y2="22.03" xlink:href="#linear-gradient"/>
    <linearGradient id="linear-gradient-17" x1="86.254" y1="21.002" x2="85.89" y2="22.028" xlink:href="#linear-gradient"/>
    <linearGradient id="linear-gradient-18" x1="60.409" y1="21.003" x2="60.045" y2="22.03" xlink:href="#linear-gradient"/>
    <linearGradient id="linear-gradient-19" x1="35.627" y1="20.995" x2="35.263" y2="22.022" xlink:href="#linear-gradient"/>
    <linearGradient id="linear-gradient-20" x1="17.873" y1="21.003" x2="17.508" y2="22.03" xlink:href="#linear-gradient"/>
    <linearGradient id="linear-gradient-21" x1="-68.353" y1="20.995" x2="-68.718" y2="22.021" xlink:href="#linear-gradient"/>
    <linearGradient id="linear-gradient-22" x1="-20.447" y1="20.995" x2="-20.811" y2="22.021" xlink:href="#linear-gradient"/>
    <linearGradient id="linear-gradient-23" x1="-80.507" y1="21.003" x2="-80.872" y2="22.03" xlink:href="#linear-gradient"/>
    <linearGradient id="linear-gradient-24" x1="-32.663" y1="21.003" x2="-33.027" y2="22.03" xlink:href="#linear-gradient"/>
    <linearGradient id="linear-gradient-25" x1="46.891" y1="21.003" x2="46.527" y2="22.03" xlink:href="#linear-gradient"/>
    <linearGradient id="linear-gradient-26" x1="82.265" y1="14.84" x2="81.9" y2="15.866" xlink:href="#linear-gradient"/>
    <linearGradient id="linear-gradient-27" x1="65.879" y1="14.84" x2="65.515" y2="15.866" xlink:href="#linear-gradient"/>
    <linearGradient id="linear-gradient-28" x1="91.565" y1="10.485" x2="91.201" y2="11.511" xlink:href="#linear-gradient"/>
    <linearGradient id="linear-gradient-29" x1="84.139" y1="13.187" x2="83.775" y2="14.214" xlink:href="#linear-gradient"/>
    <linearGradient id="linear-gradient-30" x1="99.722" y1="13.187" x2="99.358" y2="14.214" xlink:href="#linear-gradient"/>
    <linearGradient id="linear-gradient-31" x1="114.341" y1="18.662" x2="113.977" y2="19.688" xlink:href="#linear-gradient"/>
    <linearGradient id="linear-gradient-32" x1="234.396" y1="35.891" x2="234.032" y2="36.918" xlink:href="#linear-gradient"/>
    <linearGradient id="linear-gradient-33" x1="165.886" y1="35.891" x2="165.522" y2="36.918" xlink:href="#linear-gradient"/>
    <linearGradient id="linear-gradient-34" x1="130.967" y1="35.891" x2="130.603" y2="36.918" xlink:href="#linear-gradient"/>
    <linearGradient id="linear-gradient-35" x1="204.194" y1="35.892" x2="203.83" y2="36.919" xlink:href="#linear-gradient"/>
    <linearGradient id="linear-gradient-36" x1="170.302" y1="35.892" x2="169.937" y2="36.919" xlink:href="#linear-gradient"/>
    <linearGradient id="linear-gradient-37" x1="134.85" y1="35.892" x2="134.486" y2="36.919" xlink:href="#linear-gradient"/>
    <linearGradient id="linear-gradient-38" x1="92.614" y1="35.892" x2="92.25" y2="36.918" xlink:href="#linear-gradient"/>
    <linearGradient id="linear-gradient-39" x1="385.618" y1="101.554" x2="385.254" y2="102.58" xlink:href="#linear-gradient"/>
    <linearGradient id="linear-gradient-40" x1="62.379" y1="101.59" x2="62.014" y2="102.617" xlink:href="#linear-gradient"/>
    <linearGradient id="linear-gradient-41" x1="1.255" y1="101.392" x2="0.891" y2="102.417" xlink:href="#linear-gradient"/>
    <linearGradient id="linear-gradient-42" x1="98.877" y1="101.589" x2="98.512" y2="102.616" xlink:href="#linear-gradient"/>
    <linearGradient id="linear-gradient-43" x1="204.424" y1="101.554" x2="204.06" y2="102.58" xlink:href="#linear-gradient"/>
    <linearGradient id="linear-gradient-44" x1="458.347" y1="101.589" x2="457.982" y2="102.616" xlink:href="#linear-gradient"/>
    <linearGradient id="linear-gradient-45" x1="456.13" y1="101.554" x2="455.766" y2="102.58" xlink:href="#linear-gradient"/>
    <linearGradient id="linear-gradient-46" x1="564.919" y1="101.59" x2="564.555" y2="102.617" xlink:href="#linear-gradient"/>
    <linearGradient id="linear-gradient-47" x1="139.341" y1="35.916" x2="138.977" y2="36.943" xlink:href="#linear-gradient"/>
    <linearGradient id="linear-gradient-48" x1="109.278" y1="35.891" x2="108.913" y2="36.917" xlink:href="#linear-gradient"/>
    <linearGradient id="linear-gradient-49" x1="27.325" y1="35.891" x2="26.961" y2="36.917" xlink:href="#linear-gradient"/>
    <linearGradient id="linear-gradient-50" x1="3.543" y1="35.916" x2="3.179" y2="36.943" xlink:href="#linear-gradient"/>
    <linearGradient id="linear-gradient-51" x1="-76.842" y1="35.892" x2="-77.206" y2="36.918" xlink:href="#linear-gradient"/>
    <linearGradient id="linear-gradient-52" x1="-10.673" y1="35.892" x2="-11.037" y2="36.919" xlink:href="#linear-gradient"/>
    <linearGradient id="linear-gradient-53" x1="40.282" y1="35.891" x2="39.918" y2="36.918" xlink:href="#linear-gradient"/>
    <linearGradient id="linear-gradient-54" x1="68.327" y1="35.892" x2="67.962" y2="36.919" xlink:href="#linear-gradient"/>
    <linearGradient id="linear-gradient-55" x1="29.034" y1="35.891" x2="28.67" y2="36.918" xlink:href="#linear-gradient"/>
    <linearGradient id="linear-gradient-56" x1="223.736" y1="35.891" x2="223.371" y2="36.918" xlink:href="#linear-gradient"/>
    <linearGradient id="linear-gradient-57" x1="319.063" y1="35.892" x2="318.699" y2="36.918" xlink:href="#linear-gradient"/>
    <linearGradient id="linear-gradient-58" x1="234.396" y1="35.891" x2="234.032" y2="36.918" xlink:href="#linear-gradient"/>
  </defs>
  <g id="Group_34850" data-name="Group 34850" transform="translate(-11.51 24.75) rotate(-3)">
    <g id="Group_32217" data-name="Group 32217" transform="translate(0 3.502)">
      <g id="Group_32215" data-name="Group 32215" transform="translate(16.928 3.025)">
        <g id="Group_32214" data-name="Group 32214">
          <path id="Path_9158" data-name="Path 9158" d="M0,115.9,108.046,278.956,139.478,0l45.183,149.3L263.24,94.295,326.1,174.838l141.442-70.721,43.219,25.538" transform="translate(53.041 0)" fill="none" stroke="#8f9294" stroke-miterlimit="10" stroke-width="0.353"/>
          <path id="Path_9159" data-name="Path 9159" d="M130.03,159.4,0,132.6,53.041,43.218l116.887,80.543,26.52-64.773,15.716,25.483,36.343-55.987,59.916,50.094L392.9,60.953l36.343,90.311L461.652,0l35.36,66.792,51.076-31.432L563.805,56.97" transform="translate(0 72.686)" fill="none" stroke="#8f9294" stroke-miterlimit="10" stroke-width="0.353"/>
          <path id="Path_9160" data-name="Path 9160" d="M0,205.288l102.508-14.734L192.519,0l123.762,94.3-67.774,6.876,13.751,89.383,46.165-39.29,76.615-61.881-5.893,85.455L464.6,205.288l32.414-65.81" transform="translate(0 0)" fill="none" stroke="#8f9294" stroke-miterlimit="10" stroke-width="0.353"/>
          <path id="Path_9161" data-name="Path 9161" d="M0,62.863l50.094,33.4L104.117,0l76.615,39.344" transform="translate(212.164 94.295)" fill="none" stroke="#8f9294" stroke-miterlimit="10" stroke-width="0.353"/>
          <path id="Path_9162" data-name="Path 9162" d="M0,8.513,53.041,0,44.016,38.843" transform="translate(53.041 107.391)" fill="none" stroke="#8f9294" stroke-miterlimit="10" stroke-width="0.353"/>
          <path id="Path_9163" data-name="Path 9163" d="M53.133,72.965,0,45.455,66.971,0l38.22,42.461Z" transform="translate(143.315 58.71)" fill="none" stroke="#8f9294" stroke-miterlimit="10" stroke-width="0.353"/>
        </g>
      </g>
      <g id="Group_32216" data-name="Group 32216">
        <ellipse id="Ellipse_158" data-name="Ellipse 158" cx="12.765" cy="12.765" rx="12.765" ry="12.765" transform="translate(32.253 200.2) rotate(108.292)" fill="url(#linear-gradient)"/>
        <path id="Path_9164" data-name="Path 9164" d="M8.558,4.278a4.279,4.279,0,1,0-4.28,4.28A4.279,4.279,0,0,0,8.558,4.278Z" transform="translate(195.849 74.952)" fill="url(#linear-gradient-2)"/>
        <ellipse id="Ellipse_159" data-name="Ellipse 159" cx="3.108" cy="3.108" rx="3.108" ry="3.108" transform="translate(443.207 223.377)" fill="url(#linear-gradient-3)"/>
        <path id="Path_9165" data-name="Path 9165" d="M6.218,3.108a3.109,3.109,0,1,0-3.11,3.108A3.109,3.109,0,0,0,6.218,3.108Z" transform="translate(510.832 139.395)" fill="url(#linear-gradient-4)"/>
        <path id="Path_9166" data-name="Path 9166" d="M6.216,3.108A3.108,3.108,0,1,0,3.108,6.216,3.109,3.109,0,0,0,6.216,3.108Z" transform="translate(461.274 140.203)" fill="url(#linear-gradient-5)"/>
        <ellipse id="Ellipse_160" data-name="Ellipse 160" cx="1.088" cy="1.088" rx="1.088" ry="1.088" transform="translate(480.44 207.225)" fill="url(#linear-gradient-6)"/>
        <path id="Path_9167" data-name="Path 9167" d="M2.176,1.087A1.088,1.088,0,1,0,1.087,2.176,1.089,1.089,0,0,0,2.176,1.087Z" transform="translate(564.363 109.634)" fill="url(#linear-gradient-7)"/>
        <path id="Path_9168" data-name="Path 9168" d="M4.337,2.167A2.168,2.168,0,1,0,2.169,4.337,2.167,2.167,0,0,0,4.337,2.167Z" transform="translate(399.138 90.597)" fill="url(#linear-gradient-8)"/>
        <path id="Path_9169" data-name="Path 9169" d="M8.558,4.28A4.279,4.279,0,1,0,4.28,8.558,4.279,4.279,0,0,0,8.558,4.28Z" transform="translate(172.751 277.702)" fill="url(#linear-gradient-9)"/>
        <path id="Path_9170" data-name="Path 9170" d="M6.051,3.026A3.026,3.026,0,1,0,3.025,6.051,3.025,3.025,0,0,0,6.051,3.026Z" transform="translate(184.639 196.605)" fill="url(#linear-gradient-10)"/>
        <path id="Path_9171" data-name="Path 9171" d="M6.051,3.026A3.025,3.025,0,1,0,3.025,6.051,3.025,3.025,0,0,0,6.051,3.026Z" transform="translate(226.066 158.097)" fill="url(#linear-gradient-11)"/>
        <path id="Path_9172" data-name="Path 9172" d="M6.049,3.025A3.025,3.025,0,1,0,3.024,6.051,3.026,3.026,0,0,0,6.049,3.025Z" transform="translate(262.41 101.62)" fill="url(#linear-gradient-12)"/>
        <path id="Path_9173" data-name="Path 9173" d="M6.051,3.025A3.025,3.025,0,1,0,3.026,6.051,3.025,3.025,0,0,0,6.051,3.025Z" transform="translate(322.326 150.513)" fill="url(#linear-gradient-13)"/>
        <ellipse id="Ellipse_161" data-name="Ellipse 161" cx="3.025" cy="3.025" rx="3.025" ry="3.025" transform="translate(406.798 134.408)" fill="url(#linear-gradient-14)"/>
        <path id="Path_9174" data-name="Path 9174" d="M4.28,2.14A2.14,2.14,0,1,0,2.14,4.28,2.14,2.14,0,0,0,4.28,2.14Z" transform="translate(428.917 188.414)" fill="url(#linear-gradient-15)"/>
        <path id="Path_9175" data-name="Path 9175" d="M4.278,2.138a2.139,2.139,0,1,0-2.14,2.14A2.139,2.139,0,0,0,4.278,2.138Z" transform="translate(252.129 149.539)" fill="url(#linear-gradient-16)"/>
        <ellipse id="Ellipse_162" data-name="Ellipse 162" cx="2.139" cy="2.139" rx="2.139" ry="2.139" transform="translate(221.865 117.627)" fill="url(#linear-gradient-17)"/>
        <path id="Path_9176" data-name="Path 9176" d="M4.28,2.14A2.14,2.14,0,1,0,2.14,4.278,2.14,2.14,0,0,0,4.28,2.14Z" transform="translate(277.112 191.44)" fill="url(#linear-gradient-18)"/>
        <path id="Path_9177" data-name="Path 9177" d="M4.278,2.14a2.139,2.139,0,1,0-2.14,2.14A2.14,2.14,0,0,0,4.278,2.14Z" transform="translate(330.176 96.078)" fill="url(#linear-gradient-19)"/>
        <path id="Path_9178" data-name="Path 9178" d="M4.278,2.14a2.139,2.139,0,1,0-2.14,2.138A2.14,2.14,0,0,0,4.278,2.14Z" transform="translate(368.154 143.311)" fill="url(#linear-gradient-20)"/>
        <path id="Path_9179" data-name="Path 9179" d="M4.28,2.14A2.14,2.14,0,1,0,2.14,4.28,2.14,2.14,0,0,0,4.28,2.14Z" transform="translate(552.655 114.968)" fill="url(#linear-gradient-21)"/>
        <path id="Path_9180" data-name="Path 9180" d="M4.278,2.14a2.139,2.139,0,1,0-2.14,2.14A2.14,2.14,0,0,0,4.278,2.14Z" transform="translate(450.122 195.718)" fill="url(#linear-gradient-22)"/>
        <path id="Path_9181" data-name="Path 9181" d="M4.278,2.138a2.139,2.139,0,1,0-2.14,2.14A2.138,2.138,0,0,0,4.278,2.138Z" transform="translate(578.594 130.13)" fill="url(#linear-gradient-23)"/>
        <path id="Path_9182" data-name="Path 9182" d="M4.28,2.138a2.14,2.14,0,1,0-2.14,2.14A2.139,2.139,0,0,0,4.28,2.138Z" transform="translate(476.28 73.572)" fill="url(#linear-gradient-24)"/>
        <path id="Path_9183" data-name="Path 9183" d="M4.278,2.14A2.139,2.139,0,1,0,2.14,4.278,2.139,2.139,0,0,0,4.278,2.14Z" transform="translate(306.08 138.319)" fill="url(#linear-gradient-25)"/>
        <path id="Path_9184" data-name="Path 9184" d="M6.051,3.026A3.025,3.025,0,1,0,3.025,6.051,3.025,3.025,0,0,0,6.051,3.026Z" transform="translate(157.218 103.988)" fill="url(#linear-gradient-26)"/>
        <path id="Path_9185" data-name="Path 9185" d="M6.051,3.026A3.026,3.026,0,1,0,3.026,6.051,3.025,3.025,0,0,0,6.051,3.026Z" transform="translate(206.788 0)" fill="url(#linear-gradient-27)"/>
        <path id="Path_9186" data-name="Path 9186" d="M8.556,4.278A4.278,4.278,0,1,0,4.278,8.556,4.277,4.277,0,0,0,8.556,4.278Z" transform="translate(13.993 179.278)" fill="url(#linear-gradient-28)"/>
        <path id="Path_9187" data-name="Path 9187" d="M6.807,3.4a3.4,3.4,0,1,0-3.4,3.4A3.4,3.4,0,0,0,6.807,3.4Z" transform="translate(119.606 107.013)" fill="url(#linear-gradient-29)"/>
        <path id="Path_9188" data-name="Path 9188" d="M6.807,3.4a3.4,3.4,0,1,0-3.4,3.4A3.405,3.405,0,0,0,6.807,3.4Z" transform="translate(66.566 115.097)" fill="url(#linear-gradient-30)"/>
        <path id="Path_9189" data-name="Path 9189" d="M4.814,2.405A2.407,2.407,0,1,0,2.407,4.814,2.407,2.407,0,0,0,4.814,2.405Z" transform="translate(131.084 160.806)" fill="url(#linear-gradient-31)"/>
        <path id="Path_9190" data-name="Path 9190" d="M2.505,1.252A1.253,1.253,0,1,0,1.252,2.505,1.252,1.252,0,0,0,2.505,1.252Z" transform="translate(113.06 96.965)" fill="url(#linear-gradient-32)"/>
        <path id="Path_9191" data-name="Path 9191" d="M2.505,1.253A1.253,1.253,0,1,0,1.252,2.505,1.253,1.253,0,0,0,2.505,1.253Z" transform="translate(198.874 141.25)" fill="url(#linear-gradient-33)"/>
        <path id="Path_9192" data-name="Path 9192" d="M2.505,1.253A1.253,1.253,0,1,0,1.253,2.505,1.254,1.254,0,0,0,2.505,1.253Z" transform="translate(242.606 115.855)" fill="url(#linear-gradient-34)"/>
        <path id="Path_9193" data-name="Path 9193" d="M2.505,1.253A1.253,1.253,0,1,0,1.252,2.505,1.254,1.254,0,0,0,2.505,1.253Z" transform="translate(150.891 105.166)" fill="url(#linear-gradient-35)"/>
        <path id="Path_9194" data-name="Path 9194" d="M2.505,1.252A1.253,1.253,0,1,0,1.253,2.505,1.253,1.253,0,0,0,2.505,1.252Z" transform="translate(193.343 73.7)" fill="url(#linear-gradient-36)"/>
        <path id="Path_9195" data-name="Path 9195" d="M2.505,1.254A1.253,1.253,0,1,0,1.253,2.505,1.253,1.253,0,0,0,2.505,1.254Z" transform="translate(237.742 63.007)" fill="url(#linear-gradient-37)"/>
        <path id="Path_9196" data-name="Path 9196" d="M2.505,1.253A1.253,1.253,0,1,0,1.253,2.505,1.252,1.252,0,0,0,2.505,1.253Z" transform="translate(290.653 124.789)" fill="url(#linear-gradient-38)"/>
        <ellipse id="Ellipse_163" data-name="Ellipse 163" cx="0.443" cy="0.443" rx="0.443" ry="0.443" transform="translate(236.085 58.653)" fill="url(#linear-gradient-39)"/>
        <path id="Path_9197" data-name="Path 9197" d="M.886.443A.443.443,0,1,0,.443.886.443.443,0,0,0,.886.443Z" transform="translate(379.289 147.146)" fill="url(#linear-gradient-40)"/>
        <path id="Path_9198" data-name="Path 9198" d="M.885.443A.443.443,0,1,0,.443.887.443.443,0,0,0,.885.443Z" transform="translate(406.355 176.569)" fill="url(#linear-gradient-41)"/>
        <path id="Path_9199" data-name="Path 9199" d="M.886.443A.443.443,0,1,0,.443.886.443.443,0,0,0,.886.443Z" transform="translate(363.128 127.749)" fill="url(#linear-gradient-42)"/>
        <ellipse id="Ellipse_164" data-name="Ellipse 164" cx="0.443" cy="0.443" rx="0.443" ry="0.443" transform="translate(316.358 138.763)" fill="url(#linear-gradient-43)"/>
        <path id="Path_9200" data-name="Path 9200" d="M.886.443A.443.443,0,1,0,.443.886.443.443,0,0,0,.886.443Z" transform="translate(203.964 85.793)" fill="url(#linear-gradient-44)"/>
        <ellipse id="Ellipse_165" data-name="Ellipse 165" cx="0.443" cy="0.443" rx="0.443" ry="0.443" transform="translate(204.849 72.814)" fill="url(#linear-gradient-45)"/>
        <path id="Path_9201" data-name="Path 9201" d="M.885.443A.443.443,0,1,0,.443.886.443.443,0,0,0,.885.443Z" transform="translate(156.775 96.522)" fill="url(#linear-gradient-46)"/>
        <path id="Path_9202" data-name="Path 9202" d="M2.505,1.251A1.253,1.253,0,1,0,1.253,2.5,1.251,1.251,0,0,0,2.505,1.251Z" transform="translate(232.117 174.066)" fill="url(#linear-gradient-47)"/>
        <path id="Path_9203" data-name="Path 9203" d="M2.505,1.253A1.253,1.253,0,1,0,1.253,2.505,1.253,1.253,0,0,0,2.505,1.253Z" transform="translate(269.781 139.207)" fill="url(#linear-gradient-48)"/>
        <path id="Path_9204" data-name="Path 9204" d="M2.505,1.253A1.253,1.253,0,1,0,1.253,2.505,1.252,1.252,0,0,0,2.505,1.253Z" transform="translate(372.432 137.954)" fill="url(#linear-gradient-49)"/>
        <path id="Path_9205" data-name="Path 9205" d="M2.505,1.253A1.253,1.253,0,1,0,1.253,2.5,1.252,1.252,0,0,0,2.505,1.253Z" transform="translate(402.222 168.015)" fill="url(#linear-gradient-50)"/>
        <path id="Path_9206" data-name="Path 9206" d="M2.505,1.253A1.253,1.253,0,1,0,1.253,2.505,1.253,1.253,0,0,0,2.505,1.253Z" transform="translate(502.911 122.508)" fill="url(#linear-gradient-51)"/>
        <path id="Path_9207" data-name="Path 9207" d="M2.505,1.253A1.253,1.253,0,1,0,1.253,2.505,1.254,1.254,0,0,0,2.505,1.253Z" transform="translate(420.028 164.126)" fill="url(#linear-gradient-52)"/>
        <path id="Path_9208" data-name="Path 9208" d="M2.505,1.253A1.253,1.253,0,1,0,1.253,2.505,1.252,1.252,0,0,0,2.505,1.253Z" transform="translate(356.203 126.939)" fill="url(#linear-gradient-53)"/>
        <path id="Path_9209" data-name="Path 9209" d="M2.505,1.253A1.253,1.253,0,1,0,1.253,2.505,1.254,1.254,0,0,0,2.505,1.253Z" transform="translate(321.074 159.87)" fill="url(#linear-gradient-54)"/>
        <path id="Path_9210" data-name="Path 9210" d="M2.505,1.253A1.253,1.253,0,1,0,1.253,2.505,1.253,1.253,0,0,0,2.505,1.253Z" transform="translate(370.292 115.855)" fill="url(#linear-gradient-55)"/>
        <path id="Path_9211" data-name="Path 9211" d="M2.505,1.253A1.253,1.253,0,1,0,1.253,2.505,1.251,1.251,0,0,0,2.505,1.253Z" transform="translate(126.413 192.327)" fill="url(#linear-gradient-56)"/>
        <path id="Path_9212" data-name="Path 9212" d="M2.505,1.253A1.253,1.253,0,1,0,1.253,2.505,1.251,1.251,0,0,0,2.505,1.253Z" transform="translate(7.008 189.822)" fill="url(#linear-gradient-57)"/>
        <path id="Path_9213" data-name="Path 9213" d="M2.505,1.253A1.253,1.253,0,1,0,1.252,2.505,1.252,1.252,0,0,0,2.505,1.253Z" transform="translate(113.06 148.008)" fill="url(#linear-gradient-58)"/>
      </g>
    </g>
    <g id="Group_32218" data-name="Group 32218" transform="translate(21.867 0)">
      <ellipse id="Ellipse_166" data-name="Ellipse 166" cx="12.792" cy="12.792" rx="12.792" ry="12.792" transform="translate(432.856 318.581)" fill="#5eb91e"/>
      <ellipse id="Ellipse_167" data-name="Ellipse 167" cx="34.13" cy="34.13" rx="34.13" ry="34.13" transform="translate(96.204 44.113) rotate(130.259)" fill="#5eb91e"/>
      <ellipse id="Ellipse_168" data-name="Ellipse 168" cx="15.912" cy="15.912" rx="15.912" ry="15.912" transform="translate(386.469 267.908) rotate(103.229)" fill="#5eb91e"/>
      <ellipse id="Ellipse_169" data-name="Ellipse 169" cx="3.295" cy="3.295" rx="3.295" ry="3.295" transform="translate(55.312 300.278)" fill="#5eb91e"/>
      <path id="Path_9215" data-name="Path 9215" d="M0,8.577a8.576,8.576,0,1,1,8.577,8.575A8.577,8.577,0,0,1,0,8.577Z" transform="translate(284.255 232.727)" fill="#5eb91e"/>
      <path id="Path_9216" data-name="Path 9216" d="M0,4.288A4.288,4.288,0,1,1,4.287,8.575,4.287,4.287,0,0,1,0,4.288Z" transform="translate(454.154 206.581)" fill="#5eb91e"/>
      <path id="Path_9217" data-name="Path 9217" d="M0,4.288A4.288,4.288,0,1,1,4.287,8.575,4.287,4.287,0,0,1,0,4.288Z" transform="translate(469.336 279.757)" fill="#5eb91e"/>
      <ellipse id="Ellipse_170" data-name="Ellipse 170" cx="3.032" cy="3.032" rx="3.032" ry="3.032" transform="translate(376.408 93.455)" fill="#5eb91e"/>
      <ellipse id="Ellipse_171" data-name="Ellipse 171" cx="9.026" cy="9.026" rx="9.026" ry="9.026" transform="translate(181.946 127.161)" fill="#5eb91e"/>
      <path id="Path_9218" data-name="Path 9218" d="M12.1,6.051A6.051,6.051,0,1,0,6.051,12.1,6.051,6.051,0,0,0,12.1,6.051Z" transform="translate(89.041 191.031)" fill="#5eb91e"/>
      <path id="Path_9219" data-name="Path 9219" d="M12.1,6.051A6.051,6.051,0,1,0,6.051,12.1,6.051,6.051,0,0,0,12.1,6.051Z" transform="translate(509.472 104.726)" fill="#5eb91e"/>
      <path id="Path_9220" data-name="Path 9220" d="M12.1,6.049A6.051,6.051,0,1,0,6.051,12.1,6.051,6.051,0,0,0,12.1,6.049Z" transform="translate(199.999 60.46)" fill="#5eb91e"/>
      <ellipse id="Ellipse_172" data-name="Ellipse 172" cx="6.051" cy="6.051" rx="6.051" ry="6.051" transform="translate(367.338 174.021)" fill="#5eb91e"/>
    </g>
  </g>
</svg>
