<?xml version="1.0" encoding="utf-8"?>
<!-- Generator: Adobe Illustrator 16.0.0, SVG Export Plug-In . SVG Version: 6.00 Build 0)  -->
<!DOCTYPE svg PUBLIC "-//W3C//DTD SVG 1.1//EN" "http://www.w3.org/Graphics/SVG/1.1/DTD/svg11.dtd">
<svg version="1.1" id="Layer_1" xmlns="http://www.w3.org/2000/svg" xmlns:xlink="http://www.w3.org/1999/xlink" x="0px" y="0px"
	 width="220.003px" height="47.742px" viewBox="0 0 220.003 47.742" enable-background="new 0 0 220.003 47.742"
	 xml:space="preserve">
<g>
	<path id="Path_3979" fill="#FFFFFF" d="M13.996,4.769c1.647-0.014,3.281,0.289,4.814,0.892c1.439,0.564,2.754,1.401,3.875,2.466
		c1.104,1.062,1.976,2.341,2.56,3.757c1.221,3.061,1.221,6.474,0,9.534c-0.587,1.421-1.458,2.708-2.56,3.781
		c-1.115,1.076-2.432,1.922-3.875,2.488c-1.533,0.604-3.167,0.906-4.814,0.893H9.065v9.063H0.001V4.769H13.996z M12.915,20.643
		c1.066,0.049,2.105-0.35,2.865-1.1c1.44-1.647,1.44-4.106,0-5.753c-0.752-0.765-1.794-1.174-2.865-1.127H9.064v7.984L12.915,20.643
		z"/>
	<path id="Path_3980" fill="#FFFFFF" d="M46.353,12.141v8.031h-3.381c-1.216-0.118-2.428,0.264-3.357,1.057
		c-0.768,0.997-1.129,2.248-1.01,3.5v12.912h-8.735V12.284h5.823l1.362,2.818c0.825-0.973,1.861-1.744,3.029-2.255
		c1.263-0.496,2.612-0.734,3.969-0.7L46.353,12.141z"/>
	<path id="Path_3981" fill="#FFFFFF" d="M62.017,38.49c-1.952,0.021-3.89-0.321-5.716-1.01c-1.676-0.633-3.211-1.59-4.516-2.818
		c-1.271-1.205-2.28-2.66-2.964-4.273c-1.412-3.479-1.412-7.371,0-10.849c0.684-1.613,1.693-3.068,2.964-4.274
		c1.305-1.228,2.84-2.185,4.516-2.818c3.691-1.346,7.74-1.346,11.431,0c6.971,2.795,10.357,10.713,7.562,17.685
		c-0.034,0.085-0.069,0.171-0.105,0.255c-1.412,3.285-4.106,5.848-7.456,7.093C65.906,38.167,63.968,38.511,62.017,38.49z
		 M61.994,30.647c1.47,0.052,2.894-0.521,3.921-1.573c2.033-2.362,2.033-5.856,0-8.219c-1.027-1.053-2.451-1.624-3.921-1.573
		c-1.477-0.048-2.907,0.521-3.946,1.573c-2.066,2.35-2.066,5.869,0,8.219C59.086,30.125,60.517,30.695,61.994,30.647L61.994,30.647z
		"/>
	<path id="Path_3982" fill="#FFFFFF" d="M106.468,12.283v22.542c0.03,1.836-0.288,3.66-0.938,5.377
		c-0.595,1.535-1.516,2.921-2.7,4.063c-1.23,1.161-2.697,2.042-4.3,2.583c-1.814,0.614-3.72,0.916-5.635,0.893
		c-3.194,0.127-6.346-0.77-8.994-2.561c-2.35-1.683-3.944-4.221-4.439-7.068h8.454c0.313,0.879,0.989,1.58,1.855,1.926
		c0.95,0.437,1.984,0.66,3.03,0.656c1.36,0.039,2.688-0.42,3.734-1.291c1.034-0.898,1.597-2.225,1.526-3.593V35.06
		c-0.947,0.63-1.984,1.113-3.076,1.432c-1.152,0.334-2.347,0.501-3.546,0.493c-1.73,0.017-3.446-0.311-5.048-0.963
		c-1.505-0.612-2.872-1.522-4.015-2.677c-1.139-1.16-2.041-2.533-2.654-4.039c-1.284-3.252-1.284-6.87,0-10.121
		c0.609-1.516,1.511-2.896,2.654-4.062c1.145-1.154,2.51-2.064,4.015-2.677c1.603-0.651,3.318-0.978,5.048-0.962
		c1.491-0.013,2.972,0.25,4.368,0.775c1.33,0.507,2.567,1.229,3.663,2.137l1.081-2.113H106.468z M92.896,29.805
		c1.464,0.055,2.883-0.518,3.9-1.573c1.015-1.086,1.555-2.53,1.5-4.015c0.052-1.463-0.489-2.885-1.5-3.945
		c-2.179-2.066-5.594-2.066-7.773,0c-1.025,1.052-1.577,2.477-1.526,3.945c-0.055,1.485,0.485,2.93,1.5,4.015
		C90.014,29.287,91.432,29.859,92.896,29.805z"/>
	<path id="Path_3983" fill="#FFFFFF" d="M138.091,12.236v25.361h-6.717l-0.752-1.785c-1.059,0.844-2.248,1.51-3.521,1.973
		c-1.326,0.476-2.725,0.713-4.133,0.7c-1.834,0.021-3.653-0.323-5.354-1.01c-1.578-0.642-3.008-1.601-4.199-2.817
		c-1.196-1.239-2.138-2.7-2.771-4.301c-0.687-1.732-1.03-3.584-1.01-5.447c-0.019-1.842,0.324-3.669,1.01-5.378
		c0.635-1.586,1.576-3.03,2.771-4.251c1.197-1.205,2.625-2.155,4.199-2.794c1.7-0.687,3.52-1.03,5.354-1.01
		c1.43-0.013,2.852,0.224,4.199,0.7c1.289,0.465,2.488,1.148,3.545,2.02l0.893-1.973L138.091,12.236z M124.143,30.736
		c1.519,0.045,2.984-0.551,4.039-1.645c1.069-1.104,1.647-2.596,1.601-4.133c0.006-0.779-0.139-1.552-0.424-2.277
		c-0.268-0.682-0.666-1.304-1.174-1.831c-0.508-0.521-1.115-0.936-1.785-1.221c-0.713-0.302-1.48-0.454-2.254-0.446
		c-1.533-0.052-3.016,0.545-4.086,1.644c-2.129,2.344-2.129,5.92,0,8.264c1.068,1.1,2.551,1.699,4.083,1.648V30.736z"/>
	<path id="Path_3984" fill="#FFFFFF" d="M160.727,29.989v7.655h-6.011c-4.564,0.418-8.604-2.945-9.021-7.51
		c-0.047-0.518-0.046-1.037,0.004-1.555v-9.576h-4.65v-2.02l11.367-12.117h1.785v7.42h6.387v6.717h-6.154v8.078
		c-0.133,1.476,0.955,2.779,2.432,2.912c0.16,0.015,0.32,0.015,0.48,0L160.727,29.989z"/>
	<path id="Path_3985" fill="#FFFFFF" d="M164.812,12.283h8.734v25.361h-8.734V12.283z"/>
	<g id="Group_768" transform="translate(2469.941 216.59)">
		<path id="Path_3986" fill="#FFFFFF" d="M-2267.789-204.278l-5.765,5.862l4.875,4.917l10.737-10.78L-2267.789-204.278z"/>
		<path id="Path_3987" fill="#FFFFFF" d="M-2294.085-204.278l10.731,10.78l4.852-4.894l-5.751-5.886H-2294.085z"/>
	</g>
	<path id="Path_3988" fill="#1C1C1C" d="M184.351,37.679l9.514-9.881l9.446,9.875l0.185-0.184l4.785-4.846l-13.091-13.2l0,0
		l-0.075-0.076l-0.82-0.829l0,0l-0.459-0.461l-0.457,0.461l0,0L179.387,32.64l4.784,4.846"/>
	<circle id="Ellipse_146" fill="#FFFFFF" cx="169.104" cy="4.402" r="4.401"/>
	<circle id="Ellipse_147" fill="#FFFFFF" cx="215.602" cy="33.278" r="4.401"/>
</g>
</svg>
